<svg version="1.1" id="Layer_1" xmlns="http://www.w3.org/2000/svg" xmlns:xlink="http://www.w3.org/1999/xlink" x="0px" y="0px"
	 width="255%" height="110%" viewBox="0 0 2000 1033" enable-background="new 0 0 2000 1033" xml:space="preserve">
<path fill="none" opacity="1.000000" stroke="none" 
	d="
M1477.000000,1034.000000 
	C984.666748,1034.000000 492.833496,1034.000000 1.000198,1034.000000 
	C1.000132,689.666809 1.000132,345.333618 1.000066,1.000337 
	C667.666382,1.000224 1334.332764,1.000224 2000.999268,1.000112 
	C2000.999512,345.333008 2000.999512,689.666016 2000.999756,1033.999512 
	C1826.500000,1034.000000 1652.000000,1034.000000 1477.000000,1034.000000 
M1223.488770,516.000000 
	C1135.167603,516.000000 1046.846436,516.000000 958.525330,516.000000 
	C895.533997,516.000000 832.542603,516.036743 769.551392,515.967529 
	C757.615601,515.954468 749.911133,524.908081 749.923218,535.326660 
	C750.048279,642.811707 749.997192,750.296997 750.024719,857.782166 
	C750.025208,859.555664 750.141235,861.403931 750.635925,863.090454 
	C753.871277,874.120239 760.082825,877.900085 773.262329,877.912048 
	C925.074646,878.050049 1076.887207,878.000000 1228.699585,878.000000 
	C1229.366089,878.000000 1230.035522,878.040527 1230.698853,877.993958 
	C1243.834595,877.070679 1252.065186,870.993713 1252.038330,856.320496 
	C1251.941162,803.328003 1252.000000,750.335144 1252.000000,697.342468 
	C1252.000000,643.183289 1251.983276,589.024048 1252.021240,534.864868 
	C1252.025879,528.187561 1249.136108,523.236633 1243.882324,519.329163 
	C1237.934326,514.905334 1231.094116,516.247437 1223.488770,516.000000 
M725.287292,356.996094 
	C725.858215,355.564728 726.919128,354.135864 726.926392,352.701630 
	C727.033508,331.705933 727.198669,310.706726 726.909180,289.714478 
	C726.780518,280.383728 726.349487,270.954590 724.841919,261.769318 
	C722.538757,247.735947 714.754150,236.942062 702.201721,230.075775 
	C690.925232,223.907440 678.523865,223.253708 666.030457,224.035828 
	C652.746643,224.867447 640.823181,229.311386 631.017151,238.545364 
	C627.477173,241.878876 624.326416,245.625702 620.958496,249.226151 
	C610.953735,231.039566 595.186646,224.439285 575.498718,223.857346 
	C555.702942,223.272247 539.416260,229.952515 525.737610,245.946808 
	C525.737610,237.971970 525.737610,231.558517 525.737610,225.318115 
	C519.625061,225.318115 513.883484,225.318115 508.314148,225.318115 
	C508.314148,269.370300 508.314148,313.103851 508.314148,356.682587 
	C514.707031,356.682587 520.781311,356.682587 528.000000,356.682587 
	C528.000000,330.135162 527.572876,303.896118 528.188049,277.681519 
	C528.476746,265.379272 535.118835,255.442657 544.863342,248.087387 
	C554.854370,240.546021 566.811584,239.804886 578.519043,241.229477 
	C589.442383,242.558655 598.624634,248.279587 602.809387,258.987640 
	C605.462036,265.775360 607.585571,273.227997 607.770142,280.438141 
	C608.379822,304.251617 608.000000,328.090424 608.000000,351.919525 
	C608.000000,353.524841 608.000000,355.130127 608.000000,356.736633 
	C614.595337,356.736633 620.666687,356.736633 627.000000,356.736633 
	C627.000000,354.671051 626.978821,352.865723 627.003113,351.061005 
	C627.331665,326.650604 627.252136,302.224609 628.172607,277.836456 
	C628.642029,265.399841 635.113953,255.419159 645.166809,247.999130 
	C654.363831,241.210754 665.021667,240.240295 675.887695,241.073502 
	C685.804810,241.833954 694.017883,245.881058 700.116882,254.274475 
	C706.403381,262.925903 707.633850,272.886993 707.844910,282.828003 
	C708.332947,305.813538 708.000000,328.816528 708.000000,351.812439 
	C708.000000,353.428040 708.000000,355.043671 708.000000,356.999756 
	C713.731689,356.999756 719.026367,356.999756 725.287292,356.996094 
M1468.607422,354.001587 
	C1476.468750,355.667725 1484.279541,358.382599 1492.202881,358.765686 
	C1505.650879,359.415833 1518.473267,355.944977 1530.176514,348.981354 
	C1541.019287,342.529755 1548.838379,333.194244 1553.854980,321.880280 
	C1559.761719,308.558716 1561.177002,294.534302 1559.132202,279.907288 
	C1556.015625,257.614227 1545.125244,241.100021 1525.179932,230.666550 
	C1514.685059,225.176636 1503.390015,223.846603 1491.657471,223.900833 
	C1474.446167,223.980362 1459.996582,229.955185 1448.163086,242.368958 
	C1446.696289,243.907730 1445.392944,245.602463 1442.997559,248.420593 
	C1442.997559,239.612793 1442.997559,232.422424 1442.997559,225.272385 
	C1436.718018,225.272385 1430.979492,225.272385 1425.261230,225.272385 
	C1425.261230,285.606812 1425.261230,345.668457 1425.261230,405.735901 
	C1431.598145,405.735901 1437.669678,405.735901 1444.067139,405.735901 
	C1444.067139,383.056702 1444.067139,360.639130 1444.067139,337.773071 
	C1452.267212,343.368774 1460.037476,348.671234 1468.607422,354.001587 
M222.408844,208.963348 
	C223.892517,207.979584 225.298660,206.845184 226.871918,206.035477 
	C241.697983,198.405090 257.215149,195.332855 273.930511,197.880966 
	C284.617096,199.510056 294.704559,202.109940 303.403564,208.804916 
	C307.371002,211.858337 311.354706,214.890579 315.122620,217.772980 
	C319.276184,213.562012 323.429749,209.351013 328.234192,204.480179 
	C322.192169,200.035095 316.378937,194.943604 309.831390,191.104492 
	C294.401398,182.057190 277.451050,179.442200 259.678314,179.873795 
	C242.629745,180.287827 226.799225,184.007034 212.159088,192.946548 
	C185.897232,208.982437 172.552429,232.800140 170.113419,262.934174 
	C169.027863,276.346161 171.167358,289.508118 175.941071,302.239502 
	C183.554871,322.545380 196.852524,337.823029 215.923157,347.951385 
	C235.879700,358.550293 257.373383,361.313965 279.377045,357.814606 
	C298.090851,354.838501 315.261292,347.843536 327.929199,332.219360 
	C325.005951,329.355377 321.789337,326.484711 318.913605,323.305725 
	C316.172272,320.275360 313.921387,320.240692 311.155273,323.269775 
	C305.119110,329.879730 297.410797,333.968964 289.132721,336.989258 
	C276.255798,341.687439 263.139862,342.431213 249.566925,340.118591 
	C230.520264,336.873322 215.231659,327.760315 203.899796,312.305634 
	C189.381363,292.505066 186.263901,270.332275 193.212631,247.201782 
	C197.971771,231.359848 207.527435,218.284363 222.408844,208.963348 
M1711.000000,286.542023 
	C1710.666382,282.800232 1710.658569,278.994934 1709.943359,275.327576 
	C1706.700562,258.697723 1698.920410,244.865845 1684.764648,234.955978 
	C1669.139160,224.017120 1651.782471,221.986221 1633.568237,225.047882 
	C1613.199585,228.471664 1598.354126,239.812103 1589.042114,258.118286 
	C1580.124878,275.648895 1579.786865,293.969238 1584.936890,312.677673 
	C1590.595337,333.233368 1604.370728,346.259491 1623.560059,353.919037 
	C1638.467896,359.869568 1654.059448,360.245148 1669.597168,356.899170 
	C1682.861816,354.042694 1694.395508,347.818329 1703.390259,336.679352 
	C1700.877808,333.758545 1698.071289,331.163513 1696.105225,328.039612 
	C1693.710205,324.234436 1691.824829,324.269440 1688.970703,327.448700 
	C1680.609863,336.762268 1669.429199,340.849701 1657.548462,341.805328 
	C1639.209839,343.280426 1622.854980,338.204285 1610.772461,323.250916 
	C1604.664551,315.691528 1601.445435,307.038757 1600.905151,296.842285 
	C1637.950195,296.842285 1674.359985,296.842285 1711.000000,296.842285 
	C1711.000000,293.467407 1711.000000,290.491272 1711.000000,286.542023 
M983.596741,252.064346 
	C990.200012,261.046509 990.739990,271.222870 989.680420,282.000000 
	C981.142029,282.000000 972.827271,281.754852 964.532593,282.058289 
	C952.536438,282.497162 940.484314,282.749939 928.589722,284.187744 
	C919.370911,285.302155 911.458496,289.869202 905.208252,297.183502 
	C899.318848,304.075562 898.339417,312.021729 897.828613,320.681641 
	C896.784424,338.382233 911.414490,352.048828 926.260925,356.062897 
	C936.996582,358.965546 947.860962,359.826447 958.667480,357.813660 
	C964.998413,356.634521 971.301453,354.213806 977.030151,351.226227 
	C981.917236,348.677460 985.966370,344.521667 991.027588,340.576904 
	C991.027588,346.397278 991.027588,351.591949 991.027588,356.718658 
	C997.633240,356.718658 1003.704163,356.718658 1010.000000,356.718658 
	C1010.000000,354.800262 1010.016846,353.155457 1009.997498,351.511078 
	C1009.667664,323.437805 1009.919189,295.341278 1008.805359,267.299011 
	C1007.987122,246.696487 998.548462,233.340134 979.050720,227.075409 
	C963.587524,222.107010 947.769653,222.855606 932.099426,226.465683 
	C920.558228,229.124496 909.913513,233.775436 900.756470,241.831512 
	C903.747559,246.754150 906.629517,251.497208 909.638428,256.449127 
	C911.685730,254.726913 913.167480,253.151398 914.941284,252.043396 
	C924.303955,246.194870 934.223572,242.162735 945.393555,240.754059 
	C959.700378,238.949768 972.632019,240.504211 983.596741,252.064346 
M441.237366,281.947937 
	C422.663177,282.298645 404.071320,282.276428 385.522034,283.153687 
	C375.916443,283.608002 367.052979,287.222412 359.678741,293.812347 
	C350.927673,301.632721 348.362305,311.650696 348.971497,322.942017 
	C349.561035,333.868927 354.182129,342.916840 363.049988,348.866852 
	C380.837891,360.801758 400.311462,361.220184 420.289520,355.256714 
	C428.761719,352.727783 435.483704,347.490997 442.046509,339.987457 
	C442.046509,346.413818 442.046509,351.611847 442.046509,356.710327 
	C448.650879,356.710327 454.722137,356.710327 459.999146,356.710327 
	C459.999146,325.039398 460.762573,293.634583 459.661804,262.295288 
	C459.148010,247.666367 450.649445,235.930725 436.958740,229.603409 
	C420.800476,222.135681 403.709442,222.692017 386.592743,225.800339 
	C373.716431,228.138611 362.091888,233.233994 352.048584,241.841309 
	C354.916290,246.507996 357.831116,251.251389 360.920135,256.278259 
	C362.243103,255.136932 363.374359,253.947159 364.702393,253.047989 
	C380.346771,242.455582 397.477997,237.571121 416.245453,241.127945 
	C427.041565,243.174011 435.978333,248.749802 438.891968,260.206238 
	C440.633301,267.053223 440.970062,274.257477 441.237366,281.947937 
M1355.972778,231.464310 
	C1352.428589,229.974930 1348.972778,228.207169 1345.323853,227.047119 
	C1333.236206,223.204285 1320.904419,223.131989 1308.450317,224.974487 
	C1290.139771,227.683411 1275.776367,236.734589 1265.550415,252.024963 
	C1255.901245,266.452942 1252.917236,282.372803 1254.835938,299.690063 
	C1256.507324,314.776306 1262.090942,327.807373 1272.323486,338.693665 
	C1285.223145,352.417297 1301.889771,358.303772 1320.279541,358.854614 
	C1333.867188,359.261658 1346.933960,356.305450 1358.793091,349.046997 
	C1371.127930,341.497406 1379.973022,331.237457 1385.114502,317.606506 
	C1390.511963,303.297577 1391.290405,288.834351 1388.010498,274.009033 
	C1383.858643,255.241943 1373.591675,241.080612 1355.972778,231.464310 
M1760.071045,275.590851 
	C1758.045288,273.737366 1755.385498,272.241455 1754.103516,269.968414 
	C1748.606934,260.223114 1752.757202,247.588455 1765.501953,243.048126 
	C1778.854248,238.291382 1792.401001,238.723618 1805.745972,243.045212 
	C1812.202881,245.136154 1818.379395,248.093216 1825.135254,250.842224 
	C1827.690918,246.116287 1830.321899,241.250992 1833.021484,236.258804 
	C1831.736938,235.478668 1830.773804,234.909988 1829.827515,234.314529 
	C1828.877197,233.716599 1828.010132,232.937653 1826.993408,232.501831 
	C1806.661255,223.786530 1785.618164,221.351028 1763.972412,226.075775 
	C1754.368042,228.172165 1746.176636,232.826477 1739.657837,240.650375 
	C1733.096802,248.524963 1732.756104,257.499176 1732.951660,266.907532 
	C1733.083618,273.251648 1735.495728,278.492065 1739.606567,283.113190 
	C1748.360229,292.953461 1760.377686,295.540131 1772.491211,298.027954 
	C1783.210449,300.229431 1793.968994,302.335083 1804.540283,305.126801 
	C1811.163940,306.876038 1816.705811,310.960266 1817.863647,318.258606 
	C1818.992554,325.374603 1816.455078,332.126953 1810.355225,335.734375 
	C1805.004761,338.898651 1798.542847,341.194824 1792.374146,341.775269 
	C1773.429565,343.558014 1755.520386,339.660583 1739.477051,328.939453 
	C1736.868530,327.196167 1735.484009,327.917236 1734.174194,330.335052 
	C1732.491455,333.441223 1730.847534,336.585907 1728.906372,339.529022 
	C1727.425293,341.774475 1728.106812,342.619568 1730.147339,344.097748 
	C1745.230957,355.024506 1762.702515,358.092651 1780.574951,358.769409 
	C1789.258911,359.098236 1798.235352,357.816742 1806.716553,355.764526 
	C1816.291992,353.447540 1825.011108,349.028503 1831.205688,340.471558 
	C1836.457520,333.216766 1837.326660,325.314941 1837.024536,316.872620 
	C1836.706787,307.991669 1833.014404,301.109680 1825.737915,295.942596 
	C1815.121094,288.403534 1802.562012,286.873413 1790.403564,283.943726 
	C1780.451782,281.545685 1770.619873,278.650269 1760.071045,275.590851 
M1146.000000,310.500000 
	C1146.000000,267.408234 1146.000000,224.316452 1146.000000,181.286713 
	C1139.024292,181.286713 1132.618164,181.286713 1126.283203,181.286713 
	C1126.283203,239.973907 1126.283203,298.373932 1126.283203,356.718018 
	C1165.635986,356.718018 1204.704956,356.718018 1243.714111,356.718018 
	C1243.714111,351.359070 1243.714111,346.286865 1243.714111,340.825195 
	C1211.025757,340.825195 1178.621338,340.825195 1146.000000,340.825195 
	C1146.000000,330.786560 1146.000000,321.143280 1146.000000,310.500000 
M860.000000,330.500000 
	C860.000000,277.409027 860.000000,224.318039 860.000000,171.285690 
	C853.360107,171.285690 847.287842,171.285690 841.282043,171.285690 
	C841.282043,233.305161 841.282043,295.038544 841.282043,356.714355 
	C847.640686,356.714355 853.712219,356.714355 860.000000,356.714355 
	C860.000000,348.120361 860.000000,339.810181 860.000000,330.500000 
M793.000000,300.500000 
	C793.000000,275.406647 793.000000,250.313278 793.000000,225.287811 
	C786.355286,225.287811 780.283081,225.287811 774.284424,225.287811 
	C774.284424,269.309906 774.284424,313.043579 774.284424,356.712219 
	C780.644592,356.712219 786.716858,356.712219 793.000000,356.712219 
	C793.000000,338.116852 793.000000,319.808411 793.000000,300.500000 
M776.780518,171.761948 
	C768.103577,176.805313 766.805359,187.584198 774.361877,193.762741 
	C779.119446,197.652695 784.582275,198.102509 790.148682,195.342239 
	C795.678406,192.600159 797.369202,187.830078 797.004822,182.013260 
	C796.676025,176.765472 794.116333,172.892975 789.045410,171.729904 
	C785.299072,170.870621 781.258118,171.295303 776.780518,171.761948 
z"/>
<path fill="#FFFFFF" opacity="1.000000" stroke="none" 
	d="
M1223.985962,516.000000 
	C1231.094116,516.247437 1237.934326,514.905334 1243.882324,519.329163 
	C1249.136108,523.236633 1252.025879,528.187561 1252.021240,534.864868 
	C1251.983276,589.024048 1252.000000,643.183289 1252.000000,697.342468 
	C1252.000000,750.335144 1251.941162,803.328003 1252.038330,856.320496 
	C1252.065186,870.993713 1243.834595,877.070679 1230.698853,877.993958 
	C1230.035522,878.040527 1229.366089,878.000000 1228.699585,878.000000 
	C1076.887207,878.000000 925.074646,878.050049 773.262329,877.912048 
	C760.082825,877.900085 753.871277,874.120239 750.635925,863.090454 
	C750.141235,861.403931 750.025208,859.555664 750.024719,857.782166 
	C749.997192,750.296997 750.048279,642.811707 749.923218,535.326660 
	C749.911133,524.908081 757.615601,515.954468 769.551392,515.967529 
	C832.542603,516.036743 895.533997,516.000000 958.525330,516.000000 
	C1046.846436,516.000000 1135.167603,516.000000 1223.985962,516.000000 
M1213.911011,837.611328 
	C1218.634766,832.958923 1221.092529,827.575317 1221.079956,820.687439 
	C1220.949951,749.378174 1220.923218,678.068481 1221.075928,606.759399 
	C1221.101196,594.977234 1210.084106,586.909607 1201.317993,586.917175 
	C1064.364014,587.035400 927.409851,587.035828 790.455811,586.926697 
	C780.373230,586.918640 770.761414,597.124329 770.806885,606.375610 
	C771.157654,677.683289 771.148682,748.994141 770.851196,820.302368 
	C770.802612,831.959412 778.565369,842.099670 792.742737,842.084839 
	C928.197266,841.942871 1063.652100,842.040527 1199.106323,841.830566 
	C1203.821167,841.823242 1208.532227,839.317932 1213.911011,837.611328 
M839.002686,555.299438 
	C841.177185,549.464905 838.688416,543.206055 833.217041,540.749573 
	C827.611511,538.232849 820.584045,540.488403 817.774658,545.706055 
	C814.557007,551.681885 816.115845,558.116516 821.497314,561.073120 
	C828.587036,564.968140 835.158020,563.101624 839.002686,555.299438 
M874.996887,558.507568 
	C878.783325,554.570129 878.638367,550.312317 876.257507,545.704468 
	C873.814697,540.976624 869.705200,539.905212 864.898193,539.989990 
	C859.570190,540.083862 855.060181,543.876831 854.013245,549.238220 
	C853.044312,554.200195 856.060303,559.904236 861.024658,562.498657 
	C864.814209,564.479065 871.517151,562.758728 874.996887,558.507568 
M782.574829,560.048340 
	C787.833130,564.401306 794.916870,564.124451 799.083435,559.403198 
	C803.427002,554.481506 802.756836,547.120056 797.930176,542.311890 
	C794.588562,538.983032 785.722534,538.753357 782.193787,542.635315 
	C777.633118,547.652405 775.467651,553.460632 782.574829,560.048340 
z"/>
<path fill="#FFFFFF" opacity="1.000000" stroke="none" 
	d="
M724.804199,356.997925 
	C719.026367,356.999756 713.731689,356.999756 708.000000,356.999756 
	C708.000000,355.043671 708.000000,353.428040 708.000000,351.812439 
	C708.000000,328.816528 708.332947,305.813538 707.844910,282.828003 
	C707.633850,272.886993 706.403381,262.925903 700.116882,254.274475 
	C694.017883,245.881058 685.804810,241.833954 675.887695,241.073502 
	C665.021667,240.240295 654.363831,241.210754 645.166809,247.999130 
	C635.113953,255.419159 628.642029,265.399841 628.172607,277.836456 
	C627.252136,302.224609 627.331665,326.650604 627.003113,351.061005 
	C626.978821,352.865723 627.000000,354.671051 627.000000,356.736633 
	C620.666687,356.736633 614.595337,356.736633 608.000000,356.736633 
	C608.000000,355.130127 608.000000,353.524841 608.000000,351.919525 
	C608.000000,328.090424 608.379822,304.251617 607.770142,280.438141 
	C607.585571,273.227997 605.462036,265.775360 602.809387,258.987640 
	C598.624634,248.279587 589.442383,242.558655 578.519043,241.229477 
	C566.811584,239.804886 554.854370,240.546021 544.863342,248.087387 
	C535.118835,255.442657 528.476746,265.379272 528.188049,277.681519 
	C527.572876,303.896118 528.000000,330.135162 528.000000,356.682587 
	C520.781311,356.682587 514.707031,356.682587 508.314148,356.682587 
	C508.314148,313.103851 508.314148,269.370300 508.314148,225.318115 
	C513.883484,225.318115 519.625061,225.318115 525.737610,225.318115 
	C525.737610,231.558517 525.737610,237.971970 525.737610,245.946808 
	C539.416260,229.952515 555.702942,223.272247 575.498718,223.857346 
	C595.186646,224.439285 610.953735,231.039566 620.958496,249.226151 
	C624.326416,245.625702 627.477173,241.878876 631.017151,238.545364 
	C640.823181,229.311386 652.746643,224.867447 666.030457,224.035828 
	C678.523865,223.253708 690.925232,223.907440 702.201721,230.075775 
	C714.754150,236.942062 722.538757,247.735947 724.841919,261.769318 
	C726.349487,270.954590 726.780518,280.383728 726.909180,289.714478 
	C727.198669,310.706726 727.033508,331.705933 726.926392,352.701630 
	C726.919128,354.135864 725.858215,355.564728 724.804199,356.997925 
z"/>
<path fill="#FFFFFF" opacity="1.000000" stroke="none" 
	d="
M1468.207520,353.987671 
	C1460.037476,348.671234 1452.267212,343.368774 1444.067139,337.773071 
	C1444.067139,360.639130 1444.067139,383.056702 1444.067139,405.735901 
	C1437.669678,405.735901 1431.598145,405.735901 1425.261230,405.735901 
	C1425.261230,345.668457 1425.261230,285.606812 1425.261230,225.272385 
	C1430.979492,225.272385 1436.718018,225.272385 1442.997559,225.272385 
	C1442.997559,232.422424 1442.997559,239.612793 1442.997559,248.420593 
	C1445.392944,245.602463 1446.696289,243.907730 1448.163086,242.368958 
	C1459.996582,229.955185 1474.446167,223.980362 1491.657471,223.900833 
	C1503.390015,223.846603 1514.685059,225.176636 1525.179932,230.666550 
	C1545.125244,241.100021 1556.015625,257.614227 1559.132202,279.907288 
	C1561.177002,294.534302 1559.761719,308.558716 1553.854980,321.880280 
	C1548.838379,333.194244 1541.019287,342.529755 1530.176514,348.981354 
	C1518.473267,355.944977 1505.650879,359.415833 1492.202881,358.765686 
	C1484.279541,358.382599 1476.468750,355.667725 1468.207520,353.987671 
M1527.552612,255.041916 
	C1513.100342,241.282654 1496.203613,236.154129 1477.087280,242.575531 
	C1458.480713,248.825699 1447.792847,262.219238 1444.916016,281.894165 
	C1442.070312,301.356049 1446.382690,318.221008 1461.803101,331.255188 
	C1474.413086,341.913788 1489.260742,344.552521 1504.760620,340.521271 
	C1533.600830,333.020447 1544.881470,303.805481 1539.386841,278.681274 
	C1537.467529,269.905914 1533.239990,262.592651 1527.552612,255.041916 
z"/>
<path fill="#FFFFFF" opacity="1.000000" stroke="none" 
	d="
M222.037491,208.996262 
	C207.527435,218.284363 197.971771,231.359848 193.212631,247.201782 
	C186.263901,270.332275 189.381363,292.505066 203.899796,312.305634 
	C215.231659,327.760315 230.520264,336.873322 249.566925,340.118591 
	C263.139862,342.431213 276.255798,341.687439 289.132721,336.989258 
	C297.410797,333.968964 305.119110,329.879730 311.155273,323.269775 
	C313.921387,320.240692 316.172272,320.275360 318.913605,323.305725 
	C321.789337,326.484711 325.005951,329.355377 327.929199,332.219360 
	C315.261292,347.843536 298.090851,354.838501 279.377045,357.814606 
	C257.373383,361.313965 235.879700,358.550293 215.923157,347.951385 
	C196.852524,337.823029 183.554871,322.545380 175.941071,302.239502 
	C171.167358,289.508118 169.027863,276.346161 170.113419,262.934174 
	C172.552429,232.800140 185.897232,208.982437 212.159088,192.946548 
	C226.799225,184.007034 242.629745,180.287827 259.678314,179.873795 
	C277.451050,179.442200 294.401398,182.057190 309.831390,191.104492 
	C316.378937,194.943604 322.192169,200.035095 328.234192,204.480179 
	C323.429749,209.351013 319.276184,213.562012 315.122620,217.772980 
	C311.354706,214.890579 307.371002,211.858337 303.403564,208.804916 
	C294.704559,202.109940 284.617096,199.510056 273.930511,197.880966 
	C257.215149,195.332855 241.697983,198.405090 226.871918,206.035477 
	C225.298660,206.845184 223.892517,207.979584 222.037491,208.996262 
z"/>
<path fill="#FFFFFF" opacity="1.000000" stroke="none" 
	d="
M1711.000000,287.028595 
	C1711.000000,290.491272 1711.000000,293.467407 1711.000000,296.842285 
	C1674.359985,296.842285 1637.950195,296.842285 1600.905151,296.842285 
	C1601.445435,307.038757 1604.664551,315.691528 1610.772461,323.250916 
	C1622.854980,338.204285 1639.209839,343.280426 1657.548462,341.805328 
	C1669.429199,340.849701 1680.609863,336.762268 1688.970703,327.448700 
	C1691.824829,324.269440 1693.710205,324.234436 1696.105225,328.039612 
	C1698.071289,331.163513 1700.877808,333.758545 1703.390259,336.679352 
	C1694.395508,347.818329 1682.861816,354.042694 1669.597168,356.899170 
	C1654.059448,360.245148 1638.467896,359.869568 1623.560059,353.919037 
	C1604.370728,346.259491 1590.595337,333.233368 1584.936890,312.677673 
	C1579.786865,293.969238 1580.124878,275.648895 1589.042114,258.118286 
	C1598.354126,239.812103 1613.199585,228.471664 1633.568237,225.047882 
	C1651.782471,221.986221 1669.139160,224.017120 1684.764648,234.955978 
	C1698.920410,244.865845 1706.700562,258.697723 1709.943359,275.327576 
	C1710.658569,278.994934 1710.666382,282.800232 1711.000000,287.028595 
M1671.510864,246.957138 
	C1653.651001,236.807587 1636.105347,236.928558 1619.219238,249.025421 
	C1607.782471,257.218567 1602.151123,268.721832 1600.883301,282.630615 
	C1631.929199,282.630615 1662.421509,282.630615 1693.179077,282.630615 
	C1692.492432,279.739777 1691.918335,277.231903 1691.299927,274.735016 
	C1688.422607,263.116760 1682.091431,253.866562 1671.510864,246.957138 
z"/>
<path fill="#FFFFFF" opacity="1.000000" stroke="none" 
	d="
M983.321777,251.818451 
	C972.632019,240.504211 959.700378,238.949768 945.393555,240.754059 
	C934.223572,242.162735 924.303955,246.194870 914.941284,252.043396 
	C913.167480,253.151398 911.685730,254.726913 909.638428,256.449127 
	C906.629517,251.497208 903.747559,246.754150 900.756470,241.831512 
	C909.913513,233.775436 920.558228,229.124496 932.099426,226.465683 
	C947.769653,222.855606 963.587524,222.107010 979.050720,227.075409 
	C998.548462,233.340134 1007.987122,246.696487 1008.805359,267.299011 
	C1009.919189,295.341278 1009.667664,323.437805 1009.997498,351.511078 
	C1010.016846,353.155457 1010.000000,354.800262 1010.000000,356.718658 
	C1003.704163,356.718658 997.633240,356.718658 991.027588,356.718658 
	C991.027588,351.591949 991.027588,346.397278 991.027588,340.576904 
	C985.966370,344.521667 981.917236,348.677460 977.030151,351.226227 
	C971.301453,354.213806 964.998413,356.634521 958.667480,357.813660 
	C947.860962,359.826447 936.996582,358.965546 926.260925,356.062897 
	C911.414490,352.048828 896.784424,338.382233 897.828613,320.681641 
	C898.339417,312.021729 899.318848,304.075562 905.208252,297.183502 
	C911.458496,289.869202 919.370911,285.302155 928.589722,284.187744 
	C940.484314,282.749939 952.536438,282.497162 964.532593,282.058289 
	C972.827271,281.754852 981.142029,282.000000 989.680420,282.000000 
	C990.739990,271.222870 990.200012,261.046509 983.321777,251.818451 
M957.447815,343.000244 
	C980.360901,338.390533 994.554260,324.870392 989.370422,296.000061 
	C974.943481,296.000061 960.455017,295.504700 946.027466,296.226929 
	C939.637207,296.546814 932.960571,298.453430 927.132019,301.176727 
	C914.755371,306.959625 914.499756,322.996063 919.436401,330.634583 
	C927.288086,342.783356 944.219666,345.903748 957.447815,343.000244 
z"/>
<path fill="#FFFFFF" opacity="1.000000" stroke="none" 
	d="
M441.587769,281.624512 
	C440.970062,274.257477 440.633301,267.053223 438.891968,260.206238 
	C435.978333,248.749802 427.041565,243.174011 416.245453,241.127945 
	C397.477997,237.571121 380.346771,242.455582 364.702393,253.047989 
	C363.374359,253.947159 362.243103,255.136932 360.920135,256.278259 
	C357.831116,251.251389 354.916290,246.507996 352.048584,241.841309 
	C362.091888,233.233994 373.716431,228.138611 386.592743,225.800339 
	C403.709442,222.692017 420.800476,222.135681 436.958740,229.603409 
	C450.649445,235.930725 459.148010,247.666367 459.661804,262.295288 
	C460.762573,293.634583 459.999146,325.039398 459.999146,356.710327 
	C454.722137,356.710327 448.650879,356.710327 442.046509,356.710327 
	C442.046509,351.611847 442.046509,346.413818 442.046509,339.987457 
	C435.483704,347.490997 428.761719,352.727783 420.289520,355.256714 
	C400.311462,361.220184 380.837891,360.801758 363.049988,348.866852 
	C354.182129,342.916840 349.561035,333.868927 348.971497,322.942017 
	C348.362305,311.650696 350.927673,301.632721 359.678741,293.812347 
	C367.052979,287.222412 375.916443,283.608002 385.522034,283.153687 
	C404.071320,282.276428 422.663177,282.298645 441.587769,281.624512 
M440.290436,296.003937 
	C426.987640,296.002625 413.674835,295.697418 400.386597,296.136475 
	C394.327545,296.336639 388.182281,297.516144 382.317444,299.128967 
	C374.369629,301.314667 368.476410,309.871582 367.925995,317.485931 
	C367.048645,329.622528 374.705780,337.014862 381.677612,339.962280 
	C390.330994,343.620544 399.216919,344.741211 408.683289,343.100677 
	C431.226532,339.193817 447.106415,322.178375 440.290436,296.003937 
z"/>
<path fill="#FFFFFF" opacity="1.000000" stroke="none" 
	d="
M1356.268066,231.711853 
	C1373.591675,241.080612 1383.858643,255.241943 1388.010498,274.009033 
	C1391.290405,288.834351 1390.511963,303.297577 1385.114502,317.606506 
	C1379.973022,331.237457 1371.127930,341.497406 1358.793091,349.046997 
	C1346.933960,356.305450 1333.867188,359.261658 1320.279541,358.854614 
	C1301.889771,358.303772 1285.223145,352.417297 1272.323486,338.693665 
	C1262.090942,327.807373 1256.507324,314.776306 1254.835938,299.690063 
	C1252.917236,282.372803 1255.901245,266.452942 1265.550415,252.024963 
	C1275.776367,236.734589 1290.139771,227.683411 1308.450317,224.974487 
	C1320.904419,223.131989 1333.236206,223.204285 1345.323853,227.047119 
	C1348.972778,228.207169 1352.428589,229.974930 1356.268066,231.711853 
M1347.988770,247.476654 
	C1337.512939,241.079239 1326.411499,238.845612 1314.107300,240.866760 
	C1300.927856,243.031677 1290.704590,249.619751 1283.091431,260.065094 
	C1273.392212,273.372162 1272.047241,288.696899 1275.241089,304.292358 
	C1277.995972,317.745422 1285.800415,328.017212 1297.637695,335.292908 
	C1308.635742,342.052856 1320.446045,343.472443 1332.719360,340.897705 
	C1345.804077,338.152771 1356.131226,331.078339 1362.970825,319.334717 
	C1368.889404,309.172455 1370.858032,298.141968 1369.978149,286.557190 
	C1368.754272,270.445923 1362.801514,256.887787 1347.988770,247.476654 
z"/>
<path fill="#FFFFFF" opacity="1.000000" stroke="none" 
	d="
M1760.402832,275.783081 
	C1770.619873,278.650269 1780.451782,281.545685 1790.403564,283.943726 
	C1802.562012,286.873413 1815.121094,288.403534 1825.737915,295.942596 
	C1833.014404,301.109680 1836.706787,307.991669 1837.024536,316.872620 
	C1837.326660,325.314941 1836.457520,333.216766 1831.205688,340.471558 
	C1825.011108,349.028503 1816.291992,353.447540 1806.716553,355.764526 
	C1798.235352,357.816742 1789.258911,359.098236 1780.574951,358.769409 
	C1762.702515,358.092651 1745.230957,355.024506 1730.147339,344.097748 
	C1728.106812,342.619568 1727.425293,341.774475 1728.906372,339.529022 
	C1730.847534,336.585907 1732.491455,333.441223 1734.174194,330.335052 
	C1735.484009,327.917236 1736.868530,327.196167 1739.477051,328.939453 
	C1755.520386,339.660583 1773.429565,343.558014 1792.374146,341.775269 
	C1798.542847,341.194824 1805.004761,338.898651 1810.355225,335.734375 
	C1816.455078,332.126953 1818.992554,325.374603 1817.863647,318.258606 
	C1816.705811,310.960266 1811.163940,306.876038 1804.540283,305.126801 
	C1793.968994,302.335083 1783.210449,300.229431 1772.491211,298.027954 
	C1760.377686,295.540131 1748.360229,292.953461 1739.606567,283.113190 
	C1735.495728,278.492065 1733.083618,273.251648 1732.951660,266.907532 
	C1732.756104,257.499176 1733.096802,248.524963 1739.657837,240.650375 
	C1746.176636,232.826477 1754.368042,228.172165 1763.972412,226.075775 
	C1785.618164,221.351028 1806.661255,223.786530 1826.993408,232.501831 
	C1828.010132,232.937653 1828.877197,233.716599 1829.827515,234.314529 
	C1830.773804,234.909988 1831.736938,235.478668 1833.021484,236.258804 
	C1830.321899,241.250992 1827.690918,246.116287 1825.135254,250.842224 
	C1818.379395,248.093216 1812.202881,245.136154 1805.745972,243.045212 
	C1792.401001,238.723618 1778.854248,238.291382 1765.501953,243.048126 
	C1752.757202,247.588455 1748.606934,260.223114 1754.103516,269.968414 
	C1755.385498,272.241455 1758.045288,273.737366 1760.402832,275.783081 
z"/>
<path fill="#FFFFFF" opacity="1.000000" stroke="none" 
	d="
M1146.000000,311.000000 
	C1146.000000,321.143280 1146.000000,330.786560 1146.000000,340.825195 
	C1178.621338,340.825195 1211.025757,340.825195 1243.714111,340.825195 
	C1243.714111,346.286865 1243.714111,351.359070 1243.714111,356.718018 
	C1204.704956,356.718018 1165.635986,356.718018 1126.283203,356.718018 
	C1126.283203,298.373932 1126.283203,239.973907 1126.283203,181.286713 
	C1132.618164,181.286713 1139.024292,181.286713 1146.000000,181.286713 
	C1146.000000,224.316452 1146.000000,267.408234 1146.000000,311.000000 
z"/>
<path fill="#FFFFFF" opacity="1.000000" stroke="none" 
	d="
M860.000000,331.000000 
	C860.000000,339.810181 860.000000,348.120361 860.000000,356.714355 
	C853.712219,356.714355 847.640686,356.714355 841.282043,356.714355 
	C841.282043,295.038544 841.282043,233.305161 841.282043,171.285690 
	C847.287842,171.285690 853.360107,171.285690 860.000000,171.285690 
	C860.000000,224.318039 860.000000,277.409027 860.000000,331.000000 
z"/>
<path fill="#FFFFFF" opacity="1.000000" stroke="none" 
	d="
M793.000000,301.000000 
	C793.000000,319.808411 793.000000,338.116852 793.000000,356.712219 
	C786.716858,356.712219 780.644592,356.712219 774.284424,356.712219 
	C774.284424,313.043579 774.284424,269.309906 774.284424,225.287811 
	C780.283081,225.287811 786.355286,225.287811 793.000000,225.287811 
	C793.000000,250.313278 793.000000,275.406647 793.000000,301.000000 
z"/>
<path fill="#FFFFFF" opacity="1.000000" stroke="none" 
	d="
M777.064453,171.454926 
	C781.258118,171.295303 785.299072,170.870621 789.045410,171.729904 
	C794.116333,172.892975 796.676025,176.765472 797.004822,182.013260 
	C797.369202,187.830078 795.678406,192.600159 790.148682,195.342239 
	C784.582275,198.102509 779.119446,197.652695 774.361877,193.762741 
	C766.805359,187.584198 768.103577,176.805313 777.064453,171.454926 
z"/>
<path fill="#000000" opacity="1.000000" stroke="none" 
	d="
M1213.578003,837.794128 
	C1208.532227,839.317932 1203.821167,841.823242 1199.106323,841.830566 
	C1063.652100,842.040527 928.197266,841.942871 792.742737,842.084839 
	C778.565369,842.099670 770.802612,831.959412 770.851196,820.302368 
	C771.148682,748.994141 771.157654,677.683289 770.806885,606.375610 
	C770.761414,597.124329 780.373230,586.918640 790.455811,586.926697 
	C927.409851,587.035828 1064.364014,587.035400 1201.317993,586.917175 
	C1210.084106,586.909607 1221.101196,594.977234 1221.075928,606.759399 
	C1220.923218,678.068481 1220.949951,749.378174 1221.079956,820.687439 
	C1221.092529,827.575317 1218.634766,832.958923 1213.578003,837.794128 
M826.543030,683.968262 
	C826.086609,686.496887 825.630249,689.025513 825.141235,691.734863 
	C829.717773,691.734863 834.285950,691.734863 838.483765,691.734863 
	C839.302429,687.436646 840.846497,683.421326 840.644714,679.495789 
	C840.278503,672.368713 843.844482,671.149475 849.638672,671.949341 
	C850.032715,672.003784 850.486267,671.626404 850.677795,671.546997 
	C850.677795,667.912170 850.677795,664.497131 850.677795,660.719238 
	C848.274292,660.719238 846.197571,660.719238 843.563416,660.719238 
	C844.124817,655.847900 844.636108,651.411499 845.166809,646.806885 
	C849.109436,646.806885 852.393250,646.806885 855.778748,646.806885 
	C855.778748,643.145569 855.778748,639.736877 855.778748,635.969116 
	C852.801392,635.969116 850.037903,635.969116 846.825500,635.969116 
	C847.894409,629.203125 848.897400,622.854187 849.978516,616.010681 
	C846.123047,616.010681 842.330139,615.855408 838.567322,616.123413 
	C837.664001,616.187805 836.290771,617.549011 836.108398,618.500610 
	C835.223511,623.117432 834.888123,627.846497 833.867004,632.426147 
	C833.560852,633.798950 831.862854,635.300842 830.451050,635.866882 
	C828.971741,636.460022 827.070007,635.999573 825.516968,635.999573 
	C826.499084,629.122925 827.406860,622.767212 828.344482,616.202026 
	C823.429810,616.202026 819.327393,616.202026 815.217957,616.202026 
	C814.043274,622.873535 812.902893,629.350525 811.702942,636.165833 
	C807.713318,636.165833 803.954468,636.165833 800.280212,636.165833 
	C800.280212,639.976624 800.280212,643.386841 800.280212,647.162170 
	C803.647034,647.162170 806.735962,647.162170 810.257629,647.162170 
	C809.716797,651.922729 809.224182,656.259338 808.687866,660.980225 
	C805.914246,660.980225 803.158447,660.980225 800.355042,660.980225 
	C800.355042,664.900269 800.355042,668.422485 800.355042,672.293579 
	C802.791504,672.293579 804.867920,672.293579 806.937561,672.293579 
	C805.851379,678.957520 804.821777,685.273987 803.755249,691.817383 
	C808.526123,691.817383 812.637390,691.817383 816.902588,691.817383 
	C818.082153,685.182922 819.235168,678.697510 820.381592,672.249451 
	C822.960510,672.249451 825.387878,672.249451 828.024292,672.249451 
	C827.654541,676.069885 827.310547,679.624146 826.543030,683.968262 
M1072.355591,790.965637 
	C1080.487671,787.550232 1088.619873,784.134888 1097.000000,780.615417 
	C1097.000000,777.571167 1097.301514,774.374207 1096.870972,771.279053 
	C1096.660400,769.765442 1095.398682,767.704224 1094.082275,767.149231 
	C1084.498657,763.109314 1074.771240,759.412415 1065.106934,755.562500 
	C1055.507080,751.738403 1045.927734,747.862366 1036.113403,743.918213 
	C1036.113403,749.930481 1036.113403,755.246277 1036.113403,760.369263 
	C1047.100220,765.142639 1057.921631,769.844177 1069.278320,774.778198 
	C1057.963623,779.501282 1046.978638,784.086731 1036.160645,788.602417 
	C1036.160645,794.165344 1036.160645,799.464417 1036.160645,805.360535 
	C1048.190308,800.494690 1059.877563,795.767273 1072.355591,790.965637 
M974.877380,804.559570 
	C974.918213,800.898254 974.608093,797.190125 975.089294,793.587585 
	C975.684021,789.134338 973.563171,787.393555 969.787781,785.933533 
	C960.848083,782.476501 952.066833,778.610046 942.826172,774.743652 
	C954.152100,769.817322 964.935181,765.127136 975.781128,760.409546 
	C975.781128,755.191833 975.781128,749.824036 975.781128,744.317017 
	C974.317566,744.793213 973.065247,745.121643 971.873291,745.600403 
	C956.278931,751.865295 940.661133,758.073853 925.115906,764.458862 
	C914.304565,768.899475 914.350342,769.010925 915.257446,780.873413 
	C921.147766,783.233643 927.104370,785.613342 933.055603,788.006531 
	C946.720215,793.501404 960.382202,799.002869 974.877380,804.559570 
M1140.601318,621.000000 
	C1139.768066,621.000000 1138.934692,620.999329 1138.101440,621.000061 
	C1129.482788,621.007751 1126.000122,624.467773 1126.000000,633.023010 
	C1125.999878,637.522888 1125.757202,642.038696 1126.050171,646.519409 
	C1126.679443,656.148010 1123.508789,657.781982 1116.119385,660.631470 
	C1116.119385,664.259155 1116.119385,667.903564 1116.119385,671.524414 
	C1123.064087,672.848145 1125.999146,676.456055 1125.999878,683.547485 
	C1126.000488,689.047363 1125.908081,694.549316 1126.030762,700.046448 
	C1126.119507,704.028687 1128.510376,706.654175 1132.274780,706.888977 
	C1138.704712,707.290039 1145.177734,706.999573 1151.793701,706.999573 
	C1151.793701,703.180481 1151.793701,699.774292 1151.793701,695.977112 
	C1148.517944,695.977112 1145.438965,695.977112 1142.236328,695.977112 
	C1140.849609,685.175659 1145.976074,673.009399 1133.759521,665.645813 
	C1139.949585,661.747498 1141.994019,658.232422 1141.999390,652.120789 
	C1142.002686,648.454224 1142.000000,644.787598 1142.000000,641.121033 
	C1142.000000,632.190308 1142.000122,632.194153 1150.926758,631.942505 
	C1151.199951,631.934753 1151.465454,631.655334 1151.738525,631.500366 
	C1151.738525,628.074280 1151.738525,624.667419 1151.738525,621.000000 
	C1148.177124,621.000000 1144.870850,621.000000 1140.601318,621.000000 
M1176.429321,621.000000 
	C1172.998291,621.000000 1169.567261,621.000000 1166.305176,621.000000 
	C1166.305176,625.045044 1166.305176,628.460144 1166.305176,632.000000 
	C1167.931641,632.000000 1169.278687,632.165955 1170.570801,631.970093 
	C1175.130981,631.278503 1176.379761,633.351562 1176.075073,637.629456 
	C1175.744385,642.272034 1176.416138,647.002869 1175.901978,651.611633 
	C1175.143433,658.410217 1178.773071,662.289856 1183.969482,665.630066 
	C1171.264282,672.924927 1177.931030,685.682495 1175.466431,696.249634 
	C1172.290405,696.249634 1169.208374,696.249634 1166.323975,696.249634 
	C1166.323975,700.050842 1166.323975,703.457275 1166.323975,707.000000 
	C1172.300171,707.000000 1177.953247,707.007996 1183.606323,706.997742 
	C1189.019165,706.987915 1191.924072,704.097534 1191.987915,698.551758 
	C1192.045410,693.552979 1191.999512,688.552979 1192.000122,683.553528 
	C1192.000977,675.884460 1194.379395,672.956421 1201.882324,671.507812 
	C1201.882324,667.887390 1201.882324,664.243591 1201.882324,660.618408 
	C1191.561890,656.742188 1191.746704,654.967590 1191.975342,646.494263 
	C1192.110229,641.498474 1192.258667,636.476501 1191.883423,631.505371 
	C1191.713623,629.256775 1190.612305,626.891785 1189.359863,624.949463 
	C1186.521240,620.546875 1181.907349,620.746582 1176.429321,621.000000 
M1005.037476,786.600952 
	C1013.016541,766.572571 1020.995605,746.544128 1029.091187,726.223267 
	C1025.442139,725.050842 1021.832336,724.189880 1018.488892,722.722046 
	C1015.809998,721.545959 1014.983643,722.019287 1013.900513,724.773193 
	C1004.063782,749.783691 994.131775,774.758423 983.980774,799.642822 
	C979.353882,810.985352 979.102661,810.883667 990.767273,814.332581 
	C991.650391,814.593811 992.539185,814.835693 993.559082,815.124390 
	C997.431274,805.708923 1001.196899,796.552368 1005.037476,786.600952 
z"/>
<path fill="#000000" opacity="1.000000" stroke="none" 
	d="
M838.990540,555.703552 
	C835.158020,563.101624 828.587036,564.968140 821.497314,561.073120 
	C816.115845,558.116516 814.557007,551.681885 817.774658,545.706055 
	C820.584045,540.488403 827.611511,538.232849 833.217041,540.749573 
	C838.688416,543.206055 841.177185,549.464905 838.990540,555.703552 
z"/>
<path fill="#000000" opacity="1.000000" stroke="none" 
	d="
M874.712097,558.783142 
	C871.517151,562.758728 864.814209,564.479065 861.024658,562.498657 
	C856.060303,559.904236 853.044312,554.200195 854.013245,549.238220 
	C855.060181,543.876831 859.570190,540.083862 864.898193,539.989990 
	C869.705200,539.905212 873.814697,540.976624 876.257507,545.704468 
	C878.638367,550.312317 878.783325,554.570129 874.712097,558.783142 
z"/>
<path fill="#000000" opacity="1.000000" stroke="none" 
	d="
M782.293945,559.784180 
	C775.467651,553.460632 777.633118,547.652405 782.193787,542.635315 
	C785.722534,538.753357 794.588562,538.983032 797.930176,542.311890 
	C802.756836,547.120056 803.427002,554.481506 799.083435,559.403198 
	C794.916870,564.124451 787.833130,564.401306 782.293945,559.784180 
z"/>
<path fill="#000000" opacity="1.000000" stroke="none" 
	d="
M1527.760620,255.341339 
	C1533.239990,262.592651 1537.467529,269.905914 1539.386841,278.681274 
	C1544.881470,303.805481 1533.600830,333.020447 1504.760620,340.521271 
	C1489.260742,344.552521 1474.413086,341.913788 1461.803101,331.255188 
	C1446.382690,318.221008 1442.070312,301.356049 1444.916016,281.894165 
	C1447.792847,262.219238 1458.480713,248.825699 1477.087280,242.575531 
	C1496.203613,236.154129 1513.100342,241.282654 1527.760620,255.341339 
z"/>
<path fill="#000000" opacity="1.000000" stroke="none" 
	d="
M1671.885254,246.990631 
	C1682.091431,253.866562 1688.422607,263.116760 1691.299927,274.735016 
	C1691.918335,277.231903 1692.492432,279.739777 1693.179077,282.630615 
	C1662.421509,282.630615 1631.929199,282.630615 1600.883301,282.630615 
	C1602.151123,268.721832 1607.782471,257.218567 1619.219238,249.025421 
	C1636.105347,236.928558 1653.651001,236.807587 1671.885254,246.990631 
z"/>
<path fill="#000000" opacity="1.000000" stroke="none" 
	d="
M957.000305,343.002014 
	C944.219666,345.903748 927.288086,342.783356 919.436401,330.634583 
	C914.499756,322.996063 914.755371,306.959625 927.132019,301.176727 
	C932.960571,298.453430 939.637207,296.546814 946.027466,296.226929 
	C960.455017,295.504700 974.943481,296.000061 989.370422,296.000061 
	C994.554260,324.870392 980.360901,338.390533 957.000305,343.002014 
z"/>
<path fill="#000000" opacity="1.000000" stroke="none" 
	d="
M440.773163,296.030151 
	C447.106415,322.178375 431.226532,339.193817 408.683289,343.100677 
	C399.216919,344.741211 390.330994,343.620544 381.677612,339.962280 
	C374.705780,337.014862 367.048645,329.622528 367.925995,317.485931 
	C368.476410,309.871582 374.369629,301.314667 382.317444,299.128967 
	C388.182281,297.516144 394.327545,296.336639 400.386597,296.136475 
	C413.674835,295.697418 426.987640,296.002625 440.773163,296.030151 
z"/>
<path fill="#000000" opacity="1.000000" stroke="none" 
	d="
M1348.277588,247.718567 
	C1362.801514,256.887787 1368.754272,270.445923 1369.978149,286.557190 
	C1370.858032,298.141968 1368.889404,309.172455 1362.970825,319.334717 
	C1356.131226,331.078339 1345.804077,338.152771 1332.719360,340.897705 
	C1320.446045,343.472443 1308.635742,342.052856 1297.637695,335.292908 
	C1285.800415,328.017212 1277.995972,317.745422 1275.241089,304.292358 
	C1272.047241,288.696899 1273.392212,273.372162 1283.091431,260.065094 
	C1290.704590,249.619751 1300.927856,243.031677 1314.107300,240.866760 
	C1326.411499,238.845612 1337.512939,241.079239 1348.277588,247.718567 
z"/>
<path fill="#FFFFFF" opacity="1.000000" stroke="none" 
	d="
M826.754761,683.573364 
	C827.310547,679.624146 827.654541,676.069885 828.024292,672.249451 
	C825.387878,672.249451 822.960510,672.249451 820.381592,672.249451 
	C819.235168,678.697510 818.082153,685.182922 816.902588,691.817383 
	C812.637390,691.817383 808.526123,691.817383 803.755249,691.817383 
	C804.821777,685.273987 805.851379,678.957520 806.937561,672.293579 
	C804.867920,672.293579 802.791504,672.293579 800.355042,672.293579 
	C800.355042,668.422485 800.355042,664.900269 800.355042,660.980225 
	C803.158447,660.980225 805.914246,660.980225 808.687866,660.980225 
	C809.224182,656.259338 809.716797,651.922729 810.257629,647.162170 
	C806.735962,647.162170 803.647034,647.162170 800.280212,647.162170 
	C800.280212,643.386841 800.280212,639.976624 800.280212,636.165833 
	C803.954468,636.165833 807.713318,636.165833 811.702942,636.165833 
	C812.902893,629.350525 814.043274,622.873535 815.217957,616.202026 
	C819.327393,616.202026 823.429810,616.202026 828.344482,616.202026 
	C827.406860,622.767212 826.499084,629.122925 825.516968,635.999573 
	C827.070007,635.999573 828.971741,636.460022 830.451050,635.866882 
	C831.862854,635.300842 833.560852,633.798950 833.867004,632.426147 
	C834.888123,627.846497 835.223511,623.117432 836.108398,618.500610 
	C836.290771,617.549011 837.664001,616.187805 838.567322,616.123413 
	C842.330139,615.855408 846.123047,616.010681 849.978516,616.010681 
	C848.897400,622.854187 847.894409,629.203125 846.825500,635.969116 
	C850.037903,635.969116 852.801392,635.969116 855.778748,635.969116 
	C855.778748,639.736877 855.778748,643.145569 855.778748,646.806885 
	C852.393250,646.806885 849.109436,646.806885 845.166809,646.806885 
	C844.636108,651.411499 844.124817,655.847900 843.563416,660.719238 
	C846.197571,660.719238 848.274292,660.719238 850.677795,660.719238 
	C850.677795,664.497131 850.677795,667.912170 850.677795,671.546997 
	C850.486267,671.626404 850.032715,672.003784 849.638672,671.949341 
	C843.844482,671.149475 840.278503,672.368713 840.644714,679.495789 
	C840.846497,683.421326 839.302429,687.436646 838.483765,691.734863 
	C834.285950,691.734863 829.717773,691.734863 825.141235,691.734863 
	C825.630249,689.025513 826.086609,686.496887 826.754761,683.573364 
M822.802002,660.955444 
	C825.090027,660.955444 827.378113,660.955444 829.678772,660.955444 
	C830.158508,658.454224 830.748962,656.276550 830.952942,654.063232 
	C831.163940,651.773621 830.999878,649.449402 830.999878,647.192749 
	C828.569885,647.192749 825.972412,647.192749 822.999939,647.192749 
	C822.999939,649.493713 823.121338,651.617676 822.966858,653.721375 
	C822.802063,655.965454 822.376648,658.190369 822.802002,660.955444 
z"/>
<path fill="#FFFFFF" opacity="1.000000" stroke="none" 
	d="
M1071.960205,791.002747 
	C1059.877563,795.767273 1048.190308,800.494690 1036.160645,805.360535 
	C1036.160645,799.464417 1036.160645,794.165344 1036.160645,788.602417 
	C1046.978638,784.086731 1057.963623,779.501282 1069.278320,774.778198 
	C1057.921631,769.844177 1047.100220,765.142639 1036.113403,760.369263 
	C1036.113403,755.246277 1036.113403,749.930481 1036.113403,743.918213 
	C1045.927734,747.862366 1055.507080,751.738403 1065.106934,755.562500 
	C1074.771240,759.412415 1084.498657,763.109314 1094.082275,767.149231 
	C1095.398682,767.704224 1096.660400,769.765442 1096.870972,771.279053 
	C1097.301514,774.374207 1097.000000,777.571167 1097.000000,780.615417 
	C1088.619873,784.134888 1080.487671,787.550232 1071.960205,791.002747 
z"/>
<path fill="#FFFFFF" opacity="1.000000" stroke="none" 
	d="
M974.461304,804.530640 
	C960.382202,799.002869 946.720215,793.501404 933.055603,788.006531 
	C927.104370,785.613342 921.147766,783.233643 915.257446,780.873413 
	C914.350342,769.010925 914.304565,768.899475 925.115906,764.458862 
	C940.661133,758.073853 956.278931,751.865295 971.873291,745.600403 
	C973.065247,745.121643 974.317566,744.793213 975.781128,744.317017 
	C975.781128,749.824036 975.781128,755.191833 975.781128,760.409546 
	C964.935181,765.127136 954.152100,769.817322 942.826172,774.743652 
	C952.066833,778.610046 960.848083,782.476501 969.787781,785.933533 
	C973.563171,787.393555 975.684021,789.134338 975.089294,793.587585 
	C974.608093,797.190125 974.918213,800.898254 974.461304,804.530640 
z"/>
<path fill="#FFFFFF" opacity="1.000000" stroke="none" 
	d="
M1141.083008,621.000000 
	C1144.870850,621.000000 1148.177124,621.000000 1151.738525,621.000000 
	C1151.738525,624.667419 1151.738525,628.074280 1151.738525,631.500366 
	C1151.465454,631.655334 1151.199951,631.934753 1150.926758,631.942505 
	C1142.000122,632.194153 1142.000000,632.190308 1142.000000,641.121033 
	C1142.000000,644.787598 1142.002686,648.454224 1141.999390,652.120789 
	C1141.994019,658.232422 1139.949585,661.747498 1133.759521,665.645813 
	C1145.976074,673.009399 1140.849609,685.175659 1142.236328,695.977112 
	C1145.438965,695.977112 1148.517944,695.977112 1151.793701,695.977112 
	C1151.793701,699.774292 1151.793701,703.180481 1151.793701,706.999573 
	C1145.177734,706.999573 1138.704712,707.290039 1132.274780,706.888977 
	C1128.510376,706.654175 1126.119507,704.028687 1126.030762,700.046448 
	C1125.908081,694.549316 1126.000488,689.047363 1125.999878,683.547485 
	C1125.999146,676.456055 1123.064087,672.848145 1116.119385,671.524414 
	C1116.119385,667.903564 1116.119385,664.259155 1116.119385,660.631470 
	C1123.508789,657.781982 1126.679443,656.148010 1126.050171,646.519409 
	C1125.757202,642.038696 1125.999878,637.522888 1126.000000,633.023010 
	C1126.000122,624.467773 1129.482788,621.007751 1138.101440,621.000061 
	C1138.934692,620.999329 1139.768066,621.000000 1141.083008,621.000000 
z"/>
<path fill="#FFFFFF" opacity="1.000000" stroke="none" 
	d="
M1176.909912,621.000000 
	C1181.907349,620.746582 1186.521240,620.546875 1189.359863,624.949463 
	C1190.612305,626.891785 1191.713623,629.256775 1191.883423,631.505371 
	C1192.258667,636.476501 1192.110229,641.498474 1191.975342,646.494263 
	C1191.746704,654.967590 1191.561890,656.742188 1201.882324,660.618408 
	C1201.882324,664.243591 1201.882324,667.887390 1201.882324,671.507812 
	C1194.379395,672.956421 1192.000977,675.884460 1192.000122,683.553528 
	C1191.999512,688.552979 1192.045410,693.552979 1191.987915,698.551758 
	C1191.924072,704.097534 1189.019165,706.987915 1183.606323,706.997742 
	C1177.953247,707.007996 1172.300171,707.000000 1166.323975,707.000000 
	C1166.323975,703.457275 1166.323975,700.050842 1166.323975,696.249634 
	C1169.208374,696.249634 1172.290405,696.249634 1175.466431,696.249634 
	C1177.931030,685.682495 1171.264282,672.924927 1183.969482,665.630066 
	C1178.773071,662.289856 1175.143433,658.410217 1175.901978,651.611633 
	C1176.416138,647.002869 1175.744385,642.272034 1176.075073,637.629456 
	C1176.379761,633.351562 1175.130981,631.278503 1170.570801,631.970093 
	C1169.278687,632.165955 1167.931641,632.000000 1166.305176,632.000000 
	C1166.305176,628.460144 1166.305176,625.045044 1166.305176,621.000000 
	C1169.567261,621.000000 1172.998291,621.000000 1176.909912,621.000000 
z"/>
<path fill="#FFFFFF" opacity="1.000000" stroke="none" 
	d="
M1005.000000,786.998413 
	C1001.196899,796.552368 997.431274,805.708923 993.559082,815.124390 
	C992.539185,814.835693 991.650391,814.593811 990.767273,814.332581 
	C979.102661,810.883667 979.353882,810.985352 983.980774,799.642822 
	C994.131775,774.758423 1004.063782,749.783691 1013.900513,724.773193 
	C1014.983643,722.019287 1015.809998,721.545959 1018.488892,722.722046 
	C1021.832336,724.189880 1025.442139,725.050842 1029.091187,726.223267 
	C1020.995605,746.544128 1013.016541,766.572571 1005.000000,786.998413 
z"/>
<path fill="#000000" opacity="1.000000" stroke="none" 
	d="
M822.433472,660.689575 
	C822.376648,658.190369 822.802063,655.965454 822.966858,653.721375 
	C823.121338,651.617676 822.999939,649.493713 822.999939,647.192749 
	C825.972412,647.192749 828.569885,647.192749 830.999878,647.192749 
	C830.999878,649.449402 831.163940,651.773621 830.952942,654.063232 
	C830.748962,656.276550 830.158508,658.454224 829.678772,660.955444 
	C827.378113,660.955444 825.090027,660.955444 822.433472,660.689575 
z"/>
</svg>