<svg xmlns="http://www.w3.org/2000/svg" viewBox="0 0 32 32" id="rating"><linearGradient id="a" x1="5.167" x2="28.616" y1="11.039" y2="11.039" gradientUnits="userSpaceOnUse"><stop offset="0" stop-color="#2B2E81"></stop><stop offset="1" stop-color="#BE4F9C"></stop></linearGradient><path fill="url(#a)" d="M8.2 14.9c.1 0 .2 0 .3-.1.2-.1.2-.3.2-.5l-.4-2.2 1.6-1.5c.1-.1.2-.3.1-.5 0-.2-.1-.3-.3-.4l-2.2-.3-1-2c-.2-.3-.7-.3-.9 0l-1 2-2.2.3c-.2 0-.3.2-.4.3-.1.2 0 .4.1.5L3.7 12l-.4 2.2c0 .2 0 .4.2.5.2.1.4.1.5 0l2-1 2 1c.1.2.2.2.2.2zm-1.9-2.1c-.1 0-.2-.1-.2-.1s-.2 0-.2.1l-1.3.7.2-1.5c0-.2 0-.3-.1-.4l-1.1-1 1.4-.2c.2 0 .3-.1.4-.3L6 8.8l.6 1.3c.1.1.2.3.4.3l1.5.2-1.1 1c-.1.1-.2.3-.1.4l.2 1.4-1.2-.6z"></path><linearGradient id="b" x1="5.167" x2="28.616" y1="11.039" y2="11.039" gradientUnits="userSpaceOnUse"><stop offset="0" stop-color="#2B2E81"></stop><stop offset="1" stop-color="#BE4F9C"></stop></linearGradient><path fill="url(#b)" d="M18.2 14.9c.1 0 .2 0 .3-.1.2-.1.2-.3.2-.5l-.4-2.2 1.6-1.5c.1-.1.2-.3.1-.5s-.2-.3-.4-.3l-2.2-.3-1-2c-.2-.3-.7-.3-.9 0l-1 2-2.2.3c-.2 0-.3.2-.4.3-.1.2 0 .4.1.5l1.6 1.5-.4 2.2c0 .2 0 .4.2.5.2.1.4.1.5 0l2-1 2 1c.1.1.2.1.3.1zm-2-2.1c-.1 0-.2-.1-.2-.1s-.2 0-.2.1l-1.3.7.2-1.4c0-.2 0-.3-.1-.4l-1.1-1 1.5-.2c.2 0 .3-.1.4-.3l.6-1.4.6 1.3c.1.1.2.3.4.3l1.5.2-1.1 1c-.1.1-.2.3-.1.4l.2 1.4-1.3-.6z"></path><linearGradient id="c" x1="5.167" x2="28.616" y1="11.039" y2="11.039" gradientUnits="userSpaceOnUse"><stop offset="0" stop-color="#2B2E81"></stop><stop offset="1" stop-color="#BE4F9C"></stop></linearGradient><path fill="url(#c)" d="M30 10.1c-.1-.2-.2-.3-.4-.3l-2.2-.3-1-2c-.2-.3-.7-.3-.9 0l-1 2-2.2.3c-.2 0-.3.2-.4.3-.1.2 0 .4.1.5l1.6 1.5-.4 2.2c0 .2 0 .4.2.5.2.1.4.1.5 0l2-1 2 1c.1 0 .2.1.2.1.1 0 .2 0 .3-.1.2-.1.2-.3.2-.5l-.4-2.2 1.6-1.5c.2-.1.2-.3.2-.5zm-2.6 1.5c-.1.1-.2.3-.1.4l.2 1.4-1.3-.7c-.1 0-.2-.1-.2-.1s-.2 0-.2.1l-1.3.7.2-1.4c0-.2 0-.3-.1-.4l-1.1-1 1.5-.2c.2 0 .3-.1.4-.3l.6-1.3.6 1.3c.1.1.2.3.4.3l1.5.2-1.1 1z"></path><linearGradient id="d" x1="5.167" x2="28.616" y1="20.986" y2="20.986" gradientUnits="userSpaceOnUse"><stop offset="0" stop-color="#2B2E81"></stop><stop offset="1" stop-color="#BE4F9C"></stop></linearGradient><path fill="url(#d)" d="M14.7 19.7l-2.2-.3-1-2c-.2-.3-.7-.3-.9 0l-1 2-2.2.3c-.2 0-.3.2-.4.3-.1.2 0 .4.1.5L8.7 22l-.4 2.2c0 .2 0 .4.2.5.2.1.4.1.5 0l2-1 2 1c.1 0 .2.1.2.1.1 0 .2 0 .3-.1.2-.1.2-.3.2-.5l-.4-2.2 1.6-1.5c.1-.1.2-.3.1-.5 0-.2-.2-.3-.3-.3zm-2.2 1.9c-.1.1-.2.3-.1.4l.2 1.4-1.3-.7c-.1 0-.2-.1-.2-.1s-.2 0-.2.1l-1.3.7.1-1.4c0-.2 0-.3-.1-.4l-1.1-1 1.5-.2c.2 0 .3-.1.4-.3l.6-1.3.6 1.3c.1.1.2.3.4.3l1.5.2-1 1z"></path><linearGradient id="e" x1="5.167" x2="28.616" y1="20.986" y2="20.986" gradientUnits="userSpaceOnUse"><stop offset="0" stop-color="#2B2E81"></stop><stop offset="1" stop-color="#BE4F9C"></stop></linearGradient><path fill="url(#e)" d="M24.6 19.7l-2.2-.3-1-2c-.2-.3-.7-.3-.9 0l-1 2-2.2.3c-.2 0-.3.2-.4.3-.1.2 0 .4.1.5l1.6 1.5-.4 2.2c0 .2 0 .4.2.5.2.1.4.1.5 0l2-1 2 1c.1 0 .2.1.2.1.1 0 .2 0 .3-.1.2-.1.2-.3.2-.5l-.4-2.2 1.6-1.5c.1-.1.2-.3.1-.5 0-.2-.1-.3-.3-.3zm-2.2 1.9c-.1.1-.2.3-.1.4l.2 1.4-1.3-.7c-.1 0-.2-.1-.2-.1s-.2 0-.2.1l-1.3.7.2-1.4c0-.2 0-.3-.1-.4l-1.1-1 1.5-.2c.2 0 .3-.1.4-.3l.6-1.3.6 1.3c.1.1.2.3.4.3l1.5.2-1.1 1z"></path></svg>